<mxfile host="app.diagrams.net" modified="2024-03-19T10:01:57.764Z" agent="Mozilla/5.0 (Windows NT 10.0; Win64; x64) AppleWebKit/537.36 (KHTML, like Gecko) Chrome/122.0.0.0 Safari/537.36 Edg/122.0.0.0" version="22.1.18" etag="3Zu1ku8gxchFDgACFjIu" type="github">
  <diagram name="第 1 页" id="H8iAUQCGcQ0YGJitMfPq">
    <mxGraphModel>
      <root>
        <mxCell id="0" />
        <mxCell id="1" parent="0" />
      </root>
    </mxGraphModel>
  </diagram>
</mxfile>
